<svg xmlns="http://www.w3.org/2000/svg" viewBox="0 0 50 50"><defs><style>.cls-1{fill:#fff;}</style></defs><title>github</title><g id="Layer_2" data-name="Layer 2"><g id="Layer_2-2" data-name="Layer 2"><path class="cls-1" d="M41.51,0h-33A8.51,8.51,0,0,0,0,8.49v33A8.51,8.51,0,0,0,8.49,50h33A8.51,8.51,0,0,0,50,41.51v-33A8.51,8.51,0,0,0,41.51,0ZM31.05,27.26c-.83.22-1.68.37-2.73.6C29.89,29.05,30,30.57,30,32.18,30,33.43,30,40,30,40a38.16,38.16,0,0,1-9.61,0s0-6.07,0-7.47c-.56,0-1,.07-1.54.08a3.56,3.56,0,0,1-3.34-1.51,13.55,13.55,0,0,0-2.9-3.86s0-.13,0-.27a2.44,2.44,0,0,1,2.44.84c.43.46.79,1,1.21,1.48,1,1.11,2.95,1.59,4.07.75A9.65,9.65,0,0,0,22,27.74c-.68-.12-1.27-.19-1.85-.32-1.94-.43-3.8-1-5-2.79a8.67,8.67,0,0,1,.16-8.8,3.27,3.27,0,0,0,.33-1.55c.07-.94,0-1.9.11-2.84s.64-1.28,1.47-1c1.12.42,2.18,1,3.29,1.43a3.94,3.94,0,0,0,1.47.3A46.2,46.2,0,0,1,27,12a5.88,5.88,0,0,0,4.09-.77c.86-.54,2.4-1.08,3-.67,1,.65.93,2.21.66,3.45a2.3,2.3,0,0,0,.39,2A7.3,7.3,0,0,1,31.05,27.26Z"/></g></g></svg>