<svg xmlns="http://www.w3.org/2000/svg" viewBox="0 0 50 50"><defs><style>.cls-1{fill:#fff;}</style></defs><title>instagram</title><g id="Layer_2" data-name="Layer 2"><g id="Layer_2-2" data-name="Layer 2"><path class="cls-1" d="M32.33,13.33A102.8,102.8,0,0,0,18,13.28a4.93,4.93,0,0,0-4.62,4.38,96.4,96.4,0,0,0,0,14.73A4.77,4.77,0,0,0,17,36.51c2.19.61,12.7.47,15.05.21a5,5,0,0,0,4.65-4.41A105.4,105.4,0,0,0,36.73,18,5,5,0,0,0,32.33,13.33ZM25,32.48A7.48,7.48,0,1,1,32.48,25,7.47,7.47,0,0,1,25,32.48ZM32.77,19a1.76,1.76,0,1,1,1.76-1.75A1.76,1.76,0,0,1,32.77,19Z"/><path class="cls-1" d="M25,20.16A4.84,4.84,0,1,0,29.83,25,4.84,4.84,0,0,0,25,20.16Z"/><path class="cls-1" d="M41.51,0h-33A8.51,8.51,0,0,0,0,8.49v33A8.51,8.51,0,0,0,8.49,50h33A8.51,8.51,0,0,0,50,41.51v-33A8.51,8.51,0,0,0,41.51,0ZM39.15,33.42a7.39,7.39,0,0,1-6.39,5.84c-2.54.41-13.85.49-16.15-.11a7.37,7.37,0,0,1-5.86-6.36c-.41-2.46-.55-13.9.15-16.38a7.36,7.36,0,0,1,6.31-5.67c2.86-.46,11-.35,14.43-.16A8.1,8.1,0,0,1,37,12.75a7.72,7.72,0,0,1,2.36,5C39.59,20,39.82,30.88,39.15,33.42Z"/></g></g></svg>