<svg xmlns="http://www.w3.org/2000/svg" viewBox="0 0 50 50"><defs><style>.cls-1{fill:#fff;}</style></defs><title>linkedin</title><g id="Layer_2" data-name="Layer 2"><g id="Layer_2-2" data-name="Layer 2"><path class="cls-1" d="M41.51,0h-33A8.51,8.51,0,0,0,0,8.49v33A8.51,8.51,0,0,0,8.49,50h33A8.51,8.51,0,0,0,50,41.51v-33A8.51,8.51,0,0,0,41.51,0ZM18.08,37.5H12.89V20.8h5.19Zm-2.59-19a3,3,0,1,1,3-3A3,3,0,0,1,15.49,18.52Zm22,19H32.34V29.38c0-1.94,0-4.43-2.7-4.43s-3.11,2.11-3.11,4.29V37.5H21.34V20.8h5v2.28h.07a5.46,5.46,0,0,1,4.91-2.69c5.26,0,6.23,3.45,6.23,8Z"/></g></g></svg>